<?xml version="1.0" standalone="no"?><!DOCTYPE svg PUBLIC "-//W3C//DTD SVG 1.1//EN" "http://www.w3.org/Graphics/SVG/1.1/DTD/svg11.dtd"><svg t="1651057884533" class="icon" viewBox="0 0 1024 1024" version="1.1" xmlns="http://www.w3.org/2000/svg" p-id="9128" xmlns:xlink="http://www.w3.org/1999/xlink" width="200" height="200"><defs><style type="text/css">@font-face { font-family: feedback-iconfont; src: url("//at.alicdn.com/t/font_1031158_u69w8yhxdu.woff2?t=1630033759944") format("woff2"), url("//at.alicdn.com/t/font_1031158_u69w8yhxdu.woff?t=1630033759944") format("woff"), url("//at.alicdn.com/t/font_1031158_u69w8yhxdu.ttf?t=1630033759944") format("truetype"); }
</style></defs><path d="M511.24 0C286.688 0 104 184.032 104 410.24v11.328c0 114.4 65.104 247.712 193.52 396.232 93.088 107.664 184.88 182.728 188.744 185.88l24.976 20.32 24.96-20.32c3.864-3.152 95.664-78.216 188.752-185.88 128.416-148.52 193.52-281.832 193.52-396.232V410.24C918.472 184.032 735.784 0 511.24 0z m327.768 421.568c0 193.328-247.28 427.36-327.768 498.408-80.52-71.072-327.776-305.088-327.776-498.4v-11.344c0-182.064 147.04-330.184 327.776-330.184 180.736 0 327.768 148.12 327.768 330.184v11.336z m-355.44-225.456l-148.096 426.24h84.184l22.248-64.04h142.128l21.936 64.04h84.056l-145.976-426.24h-60.48z m-13.848 282.16l43.76-125.968 43.144 125.96H469.72z" p-id="9129"></path></svg>